<svg width="178" height="178" viewBox="0 0 178 178" fill="none" xmlns="http://www.w3.org/2000/svg">
    <path
        d="M129.002 98.0893C135.634 98.0893 141.47 94.464 144.476 88.9817L176.132 31.5948C179.403 25.7588 175.159 18.5081 168.439 18.5081H37.5718L29.26 0.823364H0.345459V18.5081H18.0302L49.8627 85.6216L37.9255 107.197C31.4706 119.046 39.9592 133.459 53.3996 133.459H159.508V115.774H53.3996L63.1262 98.0893H129.002ZM45.972 36.1928H153.407L129.002 80.4046H66.9284L45.972 36.1928ZM53.3996 142.301C43.673 142.301 35.8033 150.259 35.8033 159.986C35.8033 169.712 43.673 177.671 53.3996 177.671C63.1262 177.671 71.0844 169.712 71.0844 159.986C71.0844 150.259 63.1262 142.301 53.3996 142.301ZM141.823 142.301C132.097 142.301 124.227 150.259 124.227 159.986C124.227 169.712 132.097 177.671 141.823 177.671C151.55 177.671 159.508 169.712 159.508 159.986C159.508 150.259 151.55 142.301 141.823 142.301Z"
        fill="black" />
</svg>